<svg xmlns="http://www.w3.org/2000/svg" xmlns:xlink="http://www.w3.org/1999/xlink" width="770" height="429.07"><rect width="770" height="429.07" rx="5" ry="5" class="a"/><svg y="0%" x="0%"><circle cx="20" cy="20" r="6" fill="#ff5f58"/><circle cx="40" cy="20" r="6" fill="#ffbd2e"/><circle cx="60" cy="20" r="6" fill="#18c132"/></svg><svg height="369.07" viewBox="0 0 73 36.907" width="730" x="15" xmlns="http://www.w3.org/2000/svg" xmlns:xlink="http://www.w3.org/1999/xlink" y="50"><style>@keyframes k{0%{transform:translateX(0)}13.1%{transform:translateX(-73px)}14.5%{transform:translateX(-146px)}17.8%{transform:translateX(-219px)}19.2%{transform:translateX(-292px)}19.6%{transform:translateX(-365px)}20.2%{transform:translateX(-438px)}21.2%{transform:translateX(-511px)}22.6%{transform:translateX(-584px)}24.8%{transform:translateX(-657px)}25.1%{transform:translateX(-730px)}26.1%{transform:translateX(-803px)}27.2%{transform:translateX(-876px)}29.9%{transform:translateX(-949px)}30.8%{transform:translateX(-1022px)}32.4%{transform:translateX(-1095px)}33%{transform:translateX(-1168px)}33.9%{transform:translateX(-1241px)}34%{transform:translateX(-1314px)}35%{transform:translateX(-1387px)}36.2%{transform:translateX(-1460px)}37.5%{transform:translateX(-1533px)}38.2%{transform:translateX(-1606px)}38.9%{transform:translateX(-1679px)}39.5%{transform:translateX(-1752px)}41.3%{transform:translateX(-1825px)}42.5%{transform:translateX(-1898px)}47.1%{transform:translateX(-1971px)}50.8%{transform:translateX(-2044px)}52.3%{transform:translateX(-2117px)}53.5%{transform:translateX(-2190px)}54.2%{transform:translateX(-2263px)}57.5%{transform:translateX(-2336px)}62.4%{transform:translateX(-2409px)}63.7%{transform:translateX(-2482px)}64.7%{transform:translateX(-2555px)}68.9%{transform:translateX(-2628px)}69%{transform:translateX(-2774px)}70.1%{transform:translateX(-2847px)}to{transform:translateX(-2920px)}}.a{fill:#282d35}.f,.g,.h{fill:#b9c0cb;white-space:pre}.g,.h{fill:#e88388}.h{fill:#b9c0cb;font-weight:700}</style><g font-family="Monaco,Consolas,Menlo,'Bitstream Vera Sans Mono','Powerline Symbols',monospace" font-size="1.67"><defs><symbol id="1"><text y="1.67" class="f">rbas@bayraktar</text><text x="15.03" y="1.67" class="f">~</text><text x="17.034" y="1.67" class="f">%</text></symbol><symbol id="2"><text y="1.67" class="f">rbas@bayraktar</text><text x="15.03" y="1.67" class="f">~</text><text x="17.034" y="1.67" class="f">%</text><text x="19.038" y="1.67" class="f">echo</text></symbol><symbol id="3"><text y="1.67" class="f">rbas@bayraktar</text><text x="15.03" y="1.67" class="f">~</text><text x="17.034" y="1.67" class="f">%</text><text x="19.038" y="1.67" class="f">echo</text><text x="24.048" y="1.67" class="f">&quot;not</text></symbol><symbol id="4"><text y="1.67" class="f">rbas@bayraktar</text><text x="15.03" y="1.67" class="f">~</text><text x="17.034" y="1.67" class="f">%</text><text x="19.038" y="1.67" class="f">echo</text><text x="24.048" y="1.67" class="f">&quot;not</text><text x="29.058" y="1.67" class="f">a</text></symbol><symbol id="5"><text y="1.67" class="f">rbas@bayraktar</text><text x="15.03" y="1.67" class="f">~</text><text x="17.034" y="1.67" class="f">%</text><text x="19.038" y="1.67" class="f">echo</text><text x="24.048" y="1.67" class="f">&quot;not</text><text x="29.058" y="1.67" class="f">a</text><text x="31.062" y="1.67" class="f">valid</text></symbol><symbol id="6"><text y="1.67" class="f">rbas@bayraktar</text><text x="15.03" y="1.67" class="f">~</text><text x="17.034" y="1.67" class="f">%</text><text x="19.038" y="1.67" class="f">echo</text><text x="24.048" y="1.67" class="f">&quot;not</text><text x="29.058" y="1.67" class="f">a</text><text x="31.062" y="1.67" class="f">valid</text><text x="37.074" y="1.67" class="f">json&quot;</text></symbol><symbol id="7"><text y="1.67" class="f">rbas@bayraktar</text><text x="15.03" y="1.67" class="f">~</text><text x="17.034" y="1.67" class="f">%</text><text x="19.038" y="1.67" class="f">echo</text><text x="24.048" y="1.67" class="f">&quot;not</text><text x="29.058" y="1.67" class="f">a</text><text x="31.062" y="1.67" class="f">valid</text><text x="37.074" y="1.67" class="f">json&quot;</text><text x="43.086" y="1.67" class="f">|</text></symbol><symbol id="8"><text y="1.67" class="f">rbas@bayraktar</text><text x="15.03" y="1.67" class="f">~</text><text x="17.034" y="1.67" class="f">%</text><text x="19.038" y="1.67" class="f">echo</text><text x="24.048" y="1.67" class="f">&quot;not</text><text x="29.058" y="1.67" class="f">a</text><text x="31.062" y="1.67" class="f">valid</text><text x="37.074" y="1.67" class="f">json&quot;</text><text x="43.086" y="1.67" class="f">|</text><text x="45.09" y="1.67" class="f">jsonify</text></symbol><symbol id="9"><text y="1.67" class="f">-------</text></symbol><symbol id="10"><text y="1.67" class="f">[</text><text x="1.002" y="1.67" class="g">Err</text><text x="4.008" y="1.67" class="f">]</text><text x="6.012" y="1.67" class="h">Following</text><text x="16.032" y="1.67" class="h">error</text><text x="22.044" y="1.67" class="h">occured</text><text x="30.06" y="1.67" class="h">during</text><text x="37.074" y="1.67" class="h">parsing</text><text x="45.09" y="1.67" class="h">expected</text><text x="54.108" y="1.67" class="h">json</text><text x="59.118" y="1.67" class="h">data</text></symbol><symbol id="11"><text y="1.67" class="f">[</text><text x="1.002" y="1.67" class="g">Err</text><text x="4.008" y="1.67" class="f">]</text><text x="8.016" y="1.67" class="f">Error(&quot;expected</text><text x="24.048" y="1.67" class="f">ident&quot;,</text><text x="32.064" y="1.67" class="f">line:</text><text x="38.076" y="1.67" class="f">1,</text><text x="41.082" y="1.67" class="f">column:</text><text x="49.098" y="1.67" class="f">2)</text></symbol><symbol id="12"><text y="1.67" class="f">[</text><text x="1.002" y="1.67" class="g">Err</text><text x="4.008" y="1.67" class="f">]</text><text x="6.012" y="1.67" class="h">please</text><text x="13.026" y="1.67" class="h">check</text><text x="19.038" y="1.67" class="h">following</text><text x="29.058" y="1.67" class="h">data</text></symbol><symbol id="13"><text y="1.67" class="f">[</text><text x="1.002" y="1.67" class="g">Err</text><text x="4.008" y="1.67" class="f">]</text></symbol><symbol id="14"><text y="1.67" class="f">&quot;not</text><text x="5.01" y="1.67" class="f">a</text><text x="7.014" y="1.67" class="f">valid</text><text x="13.026" y="1.67" class="f">json\n&quot;</text></symbol><symbol id="a"><path fill="transparent" d="M0 0h73v17H0z"/></symbol><symbol id="b"><path fill="#6f7683" d="M0 0h1.102v2.171H0z"/></symbol></defs><path class="a" d="M0 0h73v36.907H0z"/><g style="animation-duration:14.673993s;animation-iteration-count:infinite;animation-name:k;animation-timing-function:steps(1,end)"><svg width="2993"><svg><use xlink:href="#a"/><use xlink:href="#b" x="-.004"/></svg><svg x="73"><use xlink:href="#a"/><use xlink:href="#b" x="-.004"/></svg><svg x="146"><use xlink:href="#a"/><use xlink:href="#b" x="18.996"/><use xlink:href="#1"/></svg><svg x="219"><use xlink:href="#a"/><use xlink:href="#b" x="19.996"/><text y="1.67" class="f">rbas@bayraktar</text><text x="15.03" y="1.67" class="f">~</text><text x="17.034" y="1.67" class="f">%</text><text x="19.038" y="1.67" class="f">e</text></svg><svg x="292"><use xlink:href="#a"/><use xlink:href="#b" x="20.996"/><text y="1.67" class="f">rbas@bayraktar</text><text x="15.03" y="1.67" class="f">~</text><text x="17.034" y="1.67" class="f">%</text><text x="19.038" y="1.67" class="f">ec</text></svg><svg x="365"><use xlink:href="#a"/><use xlink:href="#b" x="21.996"/><text y="1.67" class="f">rbas@bayraktar</text><text x="15.03" y="1.67" class="f">~</text><text x="17.034" y="1.67" class="f">%</text><text x="19.038" y="1.67" class="f">ech</text></svg><svg x="438"><use xlink:href="#a"/><use xlink:href="#b" x="22.996"/><use xlink:href="#2"/></svg><svg x="511"><use xlink:href="#a"/><use xlink:href="#b" x="23.996"/><use xlink:href="#2"/></svg><svg x="584"><use xlink:href="#a"/><use xlink:href="#b" x="24.996"/><text y="1.67" class="f">rbas@bayraktar</text><text x="15.03" y="1.67" class="f">~</text><text x="17.034" y="1.67" class="f">%</text><text x="19.038" y="1.67" class="f">echo</text><text x="24.048" y="1.67" class="f">&quot;</text></svg><svg x="657"><use xlink:href="#a"/><use xlink:href="#b" x="25.996"/><text y="1.67" class="f">rbas@bayraktar</text><text x="15.03" y="1.67" class="f">~</text><text x="17.034" y="1.67" class="f">%</text><text x="19.038" y="1.67" class="f">echo</text><text x="24.048" y="1.67" class="f">&quot;n</text></svg><svg x="730"><use xlink:href="#a"/><use xlink:href="#b" x="26.996"/><text y="1.67" class="f">rbas@bayraktar</text><text x="15.03" y="1.67" class="f">~</text><text x="17.034" y="1.67" class="f">%</text><text x="19.038" y="1.67" class="f">echo</text><text x="24.048" y="1.67" class="f">&quot;no</text></svg><svg x="803"><use xlink:href="#a"/><use xlink:href="#b" x="27.996"/><use xlink:href="#3"/></svg><svg x="876"><use xlink:href="#a"/><use xlink:href="#b" x="28.996"/><use xlink:href="#3"/></svg><svg x="949"><use xlink:href="#a"/><use xlink:href="#b" x="29.996"/><use xlink:href="#4"/></svg><svg x="1022"><use xlink:href="#a"/><use xlink:href="#b" x="30.996"/><use xlink:href="#4"/></svg><svg x="1095"><use xlink:href="#a"/><use xlink:href="#b" x="31.996"/><text y="1.67" class="f">rbas@bayraktar</text><text x="15.03" y="1.67" class="f">~</text><text x="17.034" y="1.67" class="f">%</text><text x="19.038" y="1.67" class="f">echo</text><text x="24.048" y="1.67" class="f">&quot;not</text><text x="29.058" y="1.67" class="f">a</text><text x="31.062" y="1.67" class="f">v</text></svg><svg x="1168"><use xlink:href="#a"/><use xlink:href="#b" x="32.996"/><text y="1.67" class="f">rbas@bayraktar</text><text x="15.03" y="1.67" class="f">~</text><text x="17.034" y="1.67" class="f">%</text><text x="19.038" y="1.67" class="f">echo</text><text x="24.048" y="1.67" class="f">&quot;not</text><text x="29.058" y="1.67" class="f">a</text><text x="31.062" y="1.67" class="f">va</text></svg><svg x="1241"><use xlink:href="#a"/><use xlink:href="#b" x="33.996"/><text y="1.67" class="f">rbas@bayraktar</text><text x="15.03" y="1.67" class="f">~</text><text x="17.034" y="1.67" class="f">%</text><text x="19.038" y="1.67" class="f">echo</text><text x="24.048" y="1.67" class="f">&quot;not</text><text x="29.058" y="1.67" class="f">a</text><text x="31.062" y="1.67" class="f">val</text></svg><svg x="1314"><use xlink:href="#a"/><use xlink:href="#b" x="34.996"/><text y="1.67" class="f">rbas@bayraktar</text><text x="15.03" y="1.67" class="f">~</text><text x="17.034" y="1.67" class="f">%</text><text x="19.038" y="1.67" class="f">echo</text><text x="24.048" y="1.67" class="f">&quot;not</text><text x="29.058" y="1.67" class="f">a</text><text x="31.062" y="1.67" class="f">vali</text></svg><svg x="1387"><use xlink:href="#a"/><use xlink:href="#b" x="35.996"/><use xlink:href="#5"/></svg><svg x="1460"><use xlink:href="#a"/><use xlink:href="#b" x="36.996"/><use xlink:href="#5"/></svg><svg x="1533"><use xlink:href="#a"/><use xlink:href="#b" x="37.996"/><text y="1.67" class="f">rbas@bayraktar</text><text x="15.03" y="1.67" class="f">~</text><text x="17.034" y="1.67" class="f">%</text><text x="19.038" y="1.67" class="f">echo</text><text x="24.048" y="1.67" class="f">&quot;not</text><text x="29.058" y="1.67" class="f">a</text><text x="31.062" y="1.67" class="f">valid</text><text x="37.074" y="1.67" class="f">j</text></svg><svg x="1606"><use xlink:href="#a"/><use xlink:href="#b" x="38.996"/><text y="1.67" class="f">rbas@bayraktar</text><text x="15.03" y="1.67" class="f">~</text><text x="17.034" y="1.67" class="f">%</text><text x="19.038" y="1.67" class="f">echo</text><text x="24.048" y="1.67" class="f">&quot;not</text><text x="29.058" y="1.67" class="f">a</text><text x="31.062" y="1.67" class="f">valid</text><text x="37.074" y="1.67" class="f">js</text></svg><svg x="1679"><use xlink:href="#a"/><use xlink:href="#b" x="39.996"/><text y="1.67" class="f">rbas@bayraktar</text><text x="15.03" y="1.67" class="f">~</text><text x="17.034" y="1.67" class="f">%</text><text x="19.038" y="1.67" class="f">echo</text><text x="24.048" y="1.67" class="f">&quot;not</text><text x="29.058" y="1.67" class="f">a</text><text x="31.062" y="1.67" class="f">valid</text><text x="37.074" y="1.67" class="f">jso</text></svg><svg x="1752"><use xlink:href="#a"/><use xlink:href="#b" x="40.996"/><text y="1.67" class="f">rbas@bayraktar</text><text x="15.03" y="1.67" class="f">~</text><text x="17.034" y="1.67" class="f">%</text><text x="19.038" y="1.67" class="f">echo</text><text x="24.048" y="1.67" class="f">&quot;not</text><text x="29.058" y="1.67" class="f">a</text><text x="31.062" y="1.67" class="f">valid</text><text x="37.074" y="1.67" class="f">json</text></svg><svg x="1825"><use xlink:href="#a"/><use xlink:href="#b" x="41.996"/><use xlink:href="#6"/></svg><svg x="1898"><use xlink:href="#a"/><use xlink:href="#b" x="42.996"/><use xlink:href="#6"/></svg><svg x="1971"><use xlink:href="#a"/><use xlink:href="#b" x="43.996"/><use xlink:href="#7"/></svg><svg x="2044"><use xlink:href="#a"/><use xlink:href="#b" x="44.996"/><use xlink:href="#7"/></svg><svg x="2117"><use xlink:href="#a"/><use xlink:href="#b" x="45.996"/><text y="1.67" class="f">rbas@bayraktar</text><text x="15.03" y="1.67" class="f">~</text><text x="17.034" y="1.67" class="f">%</text><text x="19.038" y="1.67" class="f">echo</text><text x="24.048" y="1.67" class="f">&quot;not</text><text x="29.058" y="1.67" class="f">a</text><text x="31.062" y="1.67" class="f">valid</text><text x="37.074" y="1.67" class="f">json&quot;</text><text x="43.086" y="1.67" class="f">|</text><text x="45.09" y="1.67" class="f">j</text></svg><svg x="2190"><use xlink:href="#a"/><use xlink:href="#b" x="46.996"/><text y="1.67" class="f">rbas@bayraktar</text><text x="15.03" y="1.67" class="f">~</text><text x="17.034" y="1.67" class="f">%</text><text x="19.038" y="1.67" class="f">echo</text><text x="24.048" y="1.67" class="f">&quot;not</text><text x="29.058" y="1.67" class="f">a</text><text x="31.062" y="1.67" class="f">valid</text><text x="37.074" y="1.67" class="f">json&quot;</text><text x="43.086" y="1.67" class="f">|</text><text x="45.09" y="1.67" class="f">js</text></svg><svg x="2263"><use xlink:href="#a"/><use xlink:href="#b" x="47.996"/><text y="1.67" class="f">rbas@bayraktar</text><text x="15.03" y="1.67" class="f">~</text><text x="17.034" y="1.67" class="f">%</text><text x="19.038" y="1.67" class="f">echo</text><text x="24.048" y="1.67" class="f">&quot;not</text><text x="29.058" y="1.67" class="f">a</text><text x="31.062" y="1.67" class="f">valid</text><text x="37.074" y="1.67" class="f">json&quot;</text><text x="43.086" y="1.67" class="f">|</text><text x="45.09" y="1.67" class="f">jso</text></svg><svg x="2336"><use xlink:href="#a"/><use xlink:href="#b" x="48.996"/><text y="1.67" class="f">rbas@bayraktar</text><text x="15.03" y="1.67" class="f">~</text><text x="17.034" y="1.67" class="f">%</text><text x="19.038" y="1.67" class="f">echo</text><text x="24.048" y="1.67" class="f">&quot;not</text><text x="29.058" y="1.67" class="f">a</text><text x="31.062" y="1.67" class="f">valid</text><text x="37.074" y="1.67" class="f">json&quot;</text><text x="43.086" y="1.67" class="f">|</text><text x="45.09" y="1.67" class="f">json</text></svg><svg x="2409"><use xlink:href="#a"/><use xlink:href="#b" x="49.996"/><text y="1.67" class="f">rbas@bayraktar</text><text x="15.03" y="1.67" class="f">~</text><text x="17.034" y="1.67" class="f">%</text><text x="19.038" y="1.67" class="f">echo</text><text x="24.048" y="1.67" class="f">&quot;not</text><text x="29.058" y="1.67" class="f">a</text><text x="31.062" y="1.67" class="f">valid</text><text x="37.074" y="1.67" class="f">json&quot;</text><text x="43.086" y="1.67" class="f">|</text><text x="45.09" y="1.67" class="f">jsoni</text></svg><svg x="2482"><use xlink:href="#a"/><use xlink:href="#b" x="50.996"/><text y="1.67" class="f">rbas@bayraktar</text><text x="15.03" y="1.67" class="f">~</text><text x="17.034" y="1.67" class="f">%</text><text x="19.038" y="1.67" class="f">echo</text><text x="24.048" y="1.67" class="f">&quot;not</text><text x="29.058" y="1.67" class="f">a</text><text x="31.062" y="1.67" class="f">valid</text><text x="37.074" y="1.67" class="f">json&quot;</text><text x="43.086" y="1.67" class="f">|</text><text x="45.09" y="1.67" class="f">jsonif</text></svg><svg x="2555"><use xlink:href="#a"/><use xlink:href="#b" x="51.996"/><use xlink:href="#8"/></svg><svg x="2628"><use xlink:href="#a"/><use xlink:href="#b" x="-.004" y="2.146"/><use xlink:href="#8"/></svg><svg x="2701"><use xlink:href="#a"/><use xlink:href="#b" x="-.004" y="19.514"/><use xlink:href="#8"/><use xlink:href="#9" y="2.171"/><use xlink:href="#10" y="4.342"/><use xlink:href="#11" y="6.513"/><use xlink:href="#12" y="8.684"/><use xlink:href="#13" y="10.855"/><use xlink:href="#14" y="13.026"/><use xlink:href="#9" y="17.368"/></svg><svg x="2774"><use xlink:href="#a"/><use xlink:href="#b" x="-.004" y="19.514"/><use xlink:href="#8"/><use xlink:href="#9" y="2.171"/><use xlink:href="#10" y="4.342"/><use xlink:href="#11" y="6.513"/><use xlink:href="#12" y="8.684"/><use xlink:href="#13" y="10.855"/><use xlink:href="#14" y="13.026"/><use xlink:href="#9" y="17.368"/></svg><svg x="2847"><use xlink:href="#a"/><use xlink:href="#b" x="18.996" y="19.514"/><use xlink:href="#8"/><use xlink:href="#9" y="2.171"/><use xlink:href="#10" y="4.342"/><use xlink:href="#11" y="6.513"/><use xlink:href="#12" y="8.684"/><use xlink:href="#13" y="10.855"/><use xlink:href="#14" y="13.026"/><use xlink:href="#9" y="17.368"/><use xlink:href="#1" y="19.539"/></svg><svg x="2920"><use xlink:href="#a"/><use xlink:href="#b" x="-.004" y="21.685"/><use xlink:href="#8"/><use xlink:href="#9" y="2.171"/><use xlink:href="#10" y="4.342"/><use xlink:href="#11" y="6.513"/><use xlink:href="#12" y="8.684"/><use xlink:href="#13" y="10.855"/><use xlink:href="#14" y="13.026"/><use xlink:href="#9" y="17.368"/><use xlink:href="#1" y="19.539"/></svg></svg></g></g></svg></svg>