<svg xmlns="http://www.w3.org/2000/svg" xmlns:xlink="http://www.w3.org/1999/xlink" width="850" height="754.72"><rect width="850" height="754.72" rx="5" ry="5" class="a"/><svg y="0%" x="0%"><circle cx="20" cy="20" r="6" fill="#ff5f58"/><circle cx="40" cy="20" r="6" fill="#ffbd2e"/><circle cx="60" cy="20" r="6" fill="#18c132"/></svg><svg height="694.72" viewBox="0 0 81 69.472" width="810" x="15" xmlns="http://www.w3.org/2000/svg" xmlns:xlink="http://www.w3.org/1999/xlink" y="50"><style>@keyframes k{0%{transform:translateX(0)}10.24%{transform:translateX(-81px)}10.95%{transform:translateX(-162px)}13.41%{transform:translateX(-243px)}14.54%{transform:translateX(-324px)}14.79%{transform:translateX(-405px)}15.17%{transform:translateX(-486px)}15.63%{transform:translateX(-567px)}17.92%{transform:translateX(-648px)}20.4%{transform:translateX(-729px)}20.78%{transform:translateX(-810px)}21.24%{transform:translateX(-891px)}22.2%{transform:translateX(-972px)}23.08%{transform:translateX(-1053px)}23.51%{transform:translateX(-1134px)}24.08%{transform:translateX(-1215px)}24.41%{transform:translateX(-1296px)}27.41%{transform:translateX(-1377px)}28.16%{transform:translateX(-1458px)}29.12%{transform:translateX(-1539px)}29.95%{transform:translateX(-1620px)}30.45%{transform:translateX(-1701px)}30.9%{transform:translateX(-1782px)}33.53%{transform:translateX(-1863px)}40.53%{transform:translateX(-1944px)}42.69%{transform:translateX(-2025px)}44.6%{transform:translateX(-2106px)}46.13%{transform:translateX(-2187px)}46.89%{transform:translateX(-2268px)}47.51%{transform:translateX(-2349px)}48.73%{transform:translateX(-2430px)}49.03%{transform:translateX(-2511px)}50.14%{transform:translateX(-2592px)}50.7%{transform:translateX(-2673px)}52.62%{transform:translateX(-2754px)}52.73%{transform:translateX(-2916px)}53.48%{transform:translateX(-2997px)}to{transform:translateX(-3078px)}}.a{fill:#282d35}.f,.g,.h{fill:#b9c0cb;white-space:pre}.g,.h{fill:#e88388}.h{fill:#b9c0cb;font-weight:700}</style><g font-family="Monaco,Consolas,Menlo,'Bitstream Vera Sans Mono','Powerline Symbols',monospace" font-size="1.67"><defs><symbol id="1"><text y="1.67" class="f">rbas@bayraktar</text><text x="15.03" y="1.67" class="f">~</text><text x="17.034" y="1.67" class="f">%</text></symbol><symbol id="2"><text y="1.67" class="f">rbas@bayraktar</text><text x="15.03" y="1.67" class="f">~</text><text x="17.034" y="1.67" class="f">%</text><text x="19.038" y="1.67" class="f">echo</text></symbol><symbol id="3"><text y="1.67" class="f">rbas@bayraktar</text><text x="15.03" y="1.67" class="f">~</text><text x="17.034" y="1.67" class="f">%</text><text x="19.038" y="1.67" class="f">echo</text><text x="24.048" y="1.67" class="f">&quot;not</text></symbol><symbol id="4"><text y="1.67" class="f">rbas@bayraktar</text><text x="15.03" y="1.67" class="f">~</text><text x="17.034" y="1.67" class="f">%</text><text x="19.038" y="1.67" class="f">echo</text><text x="24.048" y="1.67" class="f">&quot;not</text><text x="29.058" y="1.67" class="f">valid</text></symbol><symbol id="5"><text y="1.67" class="f">rbas@bayraktar</text><text x="15.03" y="1.67" class="f">~</text><text x="17.034" y="1.67" class="f">%</text><text x="19.038" y="1.67" class="f">echo</text><text x="24.048" y="1.67" class="f">&quot;not</text><text x="29.058" y="1.67" class="f">valid</text><text x="35.07" y="1.67" class="f">json&quot;</text></symbol><symbol id="6"><text y="1.67" class="f">rbas@bayraktar</text><text x="15.03" y="1.67" class="f">~</text><text x="17.034" y="1.67" class="f">%</text><text x="19.038" y="1.67" class="f">echo</text><text x="24.048" y="1.67" class="f">&quot;not</text><text x="29.058" y="1.67" class="f">valid</text><text x="35.07" y="1.67" class="f">json&quot;</text><text x="41.082" y="1.67" class="f">|</text></symbol><symbol id="7"><text y="1.67" class="f">rbas@bayraktar</text><text x="15.03" y="1.67" class="f">~</text><text x="17.034" y="1.67" class="f">%</text><text x="19.038" y="1.67" class="f">echo</text><text x="24.048" y="1.67" class="f">&quot;not</text><text x="29.058" y="1.67" class="f">valid</text><text x="35.07" y="1.67" class="f">json&quot;</text><text x="41.082" y="1.67" class="f">|</text><text x="43.086" y="1.67" class="f">jsonify</text></symbol><symbol id="8"><text y="1.67" class="f">-------</text></symbol><symbol id="9"><text y="1.67" class="f">[</text><text x="1.002" y="1.67" class="g">Err</text><text x="4.008" y="1.67" class="f">]</text><text x="6.012" y="1.67" class="h">Following</text><text x="16.032" y="1.67" class="h">error</text><text x="22.044" y="1.67" class="h">occured</text><text x="30.06" y="1.67" class="h">during</text><text x="37.074" y="1.67" class="h">parsing</text><text x="45.09" y="1.67" class="h">expected</text><text x="54.108" y="1.67" class="h">json</text><text x="59.118" y="1.67" class="h">data</text></symbol><symbol id="10"><text y="1.67" class="f">[</text><text x="1.002" y="1.67" class="g">Err</text><text x="4.008" y="1.67" class="f">]</text><text x="8.016" y="1.67" class="f">Error(&quot;expected</text><text x="24.048" y="1.67" class="f">ident&quot;,</text><text x="32.064" y="1.67" class="f">line:</text><text x="38.076" y="1.67" class="f">1,</text><text x="41.082" y="1.67" class="f">column:</text><text x="49.098" y="1.67" class="f">2)</text></symbol><symbol id="11"><text y="1.67" class="f">[</text><text x="1.002" y="1.67" class="g">Err</text><text x="4.008" y="1.67" class="f">]</text><text x="6.012" y="1.67" class="h">please</text><text x="13.026" y="1.67" class="h">check</text><text x="19.038" y="1.67" class="h">following</text><text x="29.058" y="1.67" class="h">data</text></symbol><symbol id="12"><text y="1.67" class="f">[</text><text x="1.002" y="1.67" class="g">Err</text><text x="4.008" y="1.67" class="f">]</text></symbol><symbol id="13"><text y="1.67" class="f">&quot;not</text><text x="5.01" y="1.67" class="f">valid</text><text x="11.022" y="1.67" class="f">json\n&quot;</text></symbol><symbol id="a"><path fill="transparent" d="M0 0h81v32H0z"/></symbol><symbol id="b"><path fill="#6f7683" d="M0 0h1.102v2.171H0z"/></symbol></defs><path class="a" d="M0 0h81v69.472H0z"/><g style="animation-duration:17.669732s;animation-iteration-count:infinite;animation-name:k;animation-timing-function:steps(1,end)"><svg width="3159"><svg><use xlink:href="#a"/><use xlink:href="#b" x="-.004"/></svg><svg x="81"><use xlink:href="#a"/><use xlink:href="#b" x="-.004"/></svg><svg x="162"><use xlink:href="#a"/><use xlink:href="#b" x="18.996"/><use xlink:href="#1"/></svg><svg x="243"><use xlink:href="#a"/><use xlink:href="#b" x="19.996"/><text y="1.67" class="f">rbas@bayraktar</text><text x="15.03" y="1.67" class="f">~</text><text x="17.034" y="1.67" class="f">%</text><text x="19.038" y="1.67" class="f">e</text></svg><svg x="324"><use xlink:href="#a"/><use xlink:href="#b" x="20.996"/><text y="1.67" class="f">rbas@bayraktar</text><text x="15.03" y="1.67" class="f">~</text><text x="17.034" y="1.67" class="f">%</text><text x="19.038" y="1.67" class="f">ec</text></svg><svg x="405"><use xlink:href="#a"/><use xlink:href="#b" x="21.996"/><text y="1.67" class="f">rbas@bayraktar</text><text x="15.03" y="1.67" class="f">~</text><text x="17.034" y="1.67" class="f">%</text><text x="19.038" y="1.67" class="f">ech</text></svg><svg x="486"><use xlink:href="#a"/><use xlink:href="#b" x="22.996"/><use xlink:href="#2"/></svg><svg x="567"><use xlink:href="#a"/><use xlink:href="#b" x="23.996"/><use xlink:href="#2"/></svg><svg x="648"><use xlink:href="#a"/><use xlink:href="#b" x="24.996"/><text y="1.67" class="f">rbas@bayraktar</text><text x="15.03" y="1.67" class="f">~</text><text x="17.034" y="1.67" class="f">%</text><text x="19.038" y="1.67" class="f">echo</text><text x="24.048" y="1.67" class="f">&quot;</text></svg><svg x="729"><use xlink:href="#a"/><use xlink:href="#b" x="25.996"/><text y="1.67" class="f">rbas@bayraktar</text><text x="15.03" y="1.67" class="f">~</text><text x="17.034" y="1.67" class="f">%</text><text x="19.038" y="1.67" class="f">echo</text><text x="24.048" y="1.67" class="f">&quot;n</text></svg><svg x="810"><use xlink:href="#a"/><use xlink:href="#b" x="26.996"/><text y="1.67" class="f">rbas@bayraktar</text><text x="15.03" y="1.67" class="f">~</text><text x="17.034" y="1.67" class="f">%</text><text x="19.038" y="1.67" class="f">echo</text><text x="24.048" y="1.67" class="f">&quot;no</text></svg><svg x="891"><use xlink:href="#a"/><use xlink:href="#b" x="27.996"/><use xlink:href="#3"/></svg><svg x="972"><use xlink:href="#a"/><use xlink:href="#b" x="28.996"/><use xlink:href="#3"/></svg><svg x="1053"><use xlink:href="#a"/><use xlink:href="#b" x="29.996"/><text y="1.67" class="f">rbas@bayraktar</text><text x="15.03" y="1.67" class="f">~</text><text x="17.034" y="1.67" class="f">%</text><text x="19.038" y="1.67" class="f">echo</text><text x="24.048" y="1.67" class="f">&quot;not</text><text x="29.058" y="1.67" class="f">v</text></svg><svg x="1134"><use xlink:href="#a"/><use xlink:href="#b" x="30.996"/><text y="1.67" class="f">rbas@bayraktar</text><text x="15.03" y="1.67" class="f">~</text><text x="17.034" y="1.67" class="f">%</text><text x="19.038" y="1.67" class="f">echo</text><text x="24.048" y="1.67" class="f">&quot;not</text><text x="29.058" y="1.67" class="f">va</text></svg><svg x="1215"><use xlink:href="#a"/><use xlink:href="#b" x="31.996"/><text y="1.67" class="f">rbas@bayraktar</text><text x="15.03" y="1.67" class="f">~</text><text x="17.034" y="1.67" class="f">%</text><text x="19.038" y="1.67" class="f">echo</text><text x="24.048" y="1.67" class="f">&quot;not</text><text x="29.058" y="1.67" class="f">val</text></svg><svg x="1296"><use xlink:href="#a"/><use xlink:href="#b" x="32.996"/><text y="1.67" class="f">rbas@bayraktar</text><text x="15.03" y="1.67" class="f">~</text><text x="17.034" y="1.67" class="f">%</text><text x="19.038" y="1.67" class="f">echo</text><text x="24.048" y="1.67" class="f">&quot;not</text><text x="29.058" y="1.67" class="f">vali</text></svg><svg x="1377"><use xlink:href="#a"/><use xlink:href="#b" x="33.996"/><use xlink:href="#4"/></svg><svg x="1458"><use xlink:href="#a"/><use xlink:href="#b" x="34.996"/><use xlink:href="#4"/></svg><svg x="1539"><use xlink:href="#a"/><use xlink:href="#b" x="35.996"/><text y="1.67" class="f">rbas@bayraktar</text><text x="15.03" y="1.67" class="f">~</text><text x="17.034" y="1.67" class="f">%</text><text x="19.038" y="1.67" class="f">echo</text><text x="24.048" y="1.67" class="f">&quot;not</text><text x="29.058" y="1.67" class="f">valid</text><text x="35.07" y="1.67" class="f">j</text></svg><svg x="1620"><use xlink:href="#a"/><use xlink:href="#b" x="36.996"/><text y="1.67" class="f">rbas@bayraktar</text><text x="15.03" y="1.67" class="f">~</text><text x="17.034" y="1.67" class="f">%</text><text x="19.038" y="1.67" class="f">echo</text><text x="24.048" y="1.67" class="f">&quot;not</text><text x="29.058" y="1.67" class="f">valid</text><text x="35.07" y="1.67" class="f">js</text></svg><svg x="1701"><use xlink:href="#a"/><use xlink:href="#b" x="37.996"/><text y="1.67" class="f">rbas@bayraktar</text><text x="15.03" y="1.67" class="f">~</text><text x="17.034" y="1.67" class="f">%</text><text x="19.038" y="1.67" class="f">echo</text><text x="24.048" y="1.67" class="f">&quot;not</text><text x="29.058" y="1.67" class="f">valid</text><text x="35.07" y="1.67" class="f">jso</text></svg><svg x="1782"><use xlink:href="#a"/><use xlink:href="#b" x="38.996"/><text y="1.67" class="f">rbas@bayraktar</text><text x="15.03" y="1.67" class="f">~</text><text x="17.034" y="1.67" class="f">%</text><text x="19.038" y="1.67" class="f">echo</text><text x="24.048" y="1.67" class="f">&quot;not</text><text x="29.058" y="1.67" class="f">valid</text><text x="35.07" y="1.67" class="f">json</text></svg><svg x="1863"><use xlink:href="#a"/><use xlink:href="#b" x="39.996"/><use xlink:href="#5"/></svg><svg x="1944"><use xlink:href="#a"/><use xlink:href="#b" x="40.996"/><use xlink:href="#5"/></svg><svg x="2025"><use xlink:href="#a"/><use xlink:href="#b" x="41.996"/><use xlink:href="#6"/></svg><svg x="2106"><use xlink:href="#a"/><use xlink:href="#b" x="42.996"/><use xlink:href="#6"/></svg><svg x="2187"><use xlink:href="#a"/><use xlink:href="#b" x="43.996"/><text y="1.67" class="f">rbas@bayraktar</text><text x="15.03" y="1.67" class="f">~</text><text x="17.034" y="1.67" class="f">%</text><text x="19.038" y="1.67" class="f">echo</text><text x="24.048" y="1.67" class="f">&quot;not</text><text x="29.058" y="1.67" class="f">valid</text><text x="35.07" y="1.67" class="f">json&quot;</text><text x="41.082" y="1.67" class="f">|</text><text x="43.086" y="1.67" class="f">j</text></svg><svg x="2268"><use xlink:href="#a"/><use xlink:href="#b" x="44.996"/><text y="1.67" class="f">rbas@bayraktar</text><text x="15.03" y="1.67" class="f">~</text><text x="17.034" y="1.67" class="f">%</text><text x="19.038" y="1.67" class="f">echo</text><text x="24.048" y="1.67" class="f">&quot;not</text><text x="29.058" y="1.67" class="f">valid</text><text x="35.07" y="1.67" class="f">json&quot;</text><text x="41.082" y="1.67" class="f">|</text><text x="43.086" y="1.67" class="f">js</text></svg><svg x="2349"><use xlink:href="#a"/><use xlink:href="#b" x="45.996"/><text y="1.67" class="f">rbas@bayraktar</text><text x="15.03" y="1.67" class="f">~</text><text x="17.034" y="1.67" class="f">%</text><text x="19.038" y="1.67" class="f">echo</text><text x="24.048" y="1.67" class="f">&quot;not</text><text x="29.058" y="1.67" class="f">valid</text><text x="35.07" y="1.67" class="f">json&quot;</text><text x="41.082" y="1.67" class="f">|</text><text x="43.086" y="1.67" class="f">jso</text></svg><svg x="2430"><use xlink:href="#a"/><use xlink:href="#b" x="46.996"/><text y="1.67" class="f">rbas@bayraktar</text><text x="15.03" y="1.67" class="f">~</text><text x="17.034" y="1.67" class="f">%</text><text x="19.038" y="1.67" class="f">echo</text><text x="24.048" y="1.67" class="f">&quot;not</text><text x="29.058" y="1.67" class="f">valid</text><text x="35.07" y="1.67" class="f">json&quot;</text><text x="41.082" y="1.67" class="f">|</text><text x="43.086" y="1.67" class="f">json</text></svg><svg x="2511"><use xlink:href="#a"/><use xlink:href="#b" x="47.996"/><text y="1.67" class="f">rbas@bayraktar</text><text x="15.03" y="1.67" class="f">~</text><text x="17.034" y="1.67" class="f">%</text><text x="19.038" y="1.67" class="f">echo</text><text x="24.048" y="1.67" class="f">&quot;not</text><text x="29.058" y="1.67" class="f">valid</text><text x="35.07" y="1.67" class="f">json&quot;</text><text x="41.082" y="1.67" class="f">|</text><text x="43.086" y="1.67" class="f">jsoni</text></svg><svg x="2592"><use xlink:href="#a"/><use xlink:href="#b" x="48.996"/><text y="1.67" class="f">rbas@bayraktar</text><text x="15.03" y="1.67" class="f">~</text><text x="17.034" y="1.67" class="f">%</text><text x="19.038" y="1.67" class="f">echo</text><text x="24.048" y="1.67" class="f">&quot;not</text><text x="29.058" y="1.67" class="f">valid</text><text x="35.07" y="1.67" class="f">json&quot;</text><text x="41.082" y="1.67" class="f">|</text><text x="43.086" y="1.67" class="f">jsonif</text></svg><svg x="2673"><use xlink:href="#a"/><use xlink:href="#b" x="49.996"/><use xlink:href="#7"/></svg><svg x="2754"><use xlink:href="#a"/><use xlink:href="#b" x="-.004" y="2.146"/><use xlink:href="#7"/></svg><svg x="2835"><use xlink:href="#a"/><use xlink:href="#b" x="-.004" y="19.514"/><use xlink:href="#7"/><use xlink:href="#8" y="2.171"/><use xlink:href="#9" y="4.342"/><use xlink:href="#10" y="6.513"/><use xlink:href="#11" y="8.684"/><use xlink:href="#12" y="10.855"/><use xlink:href="#13" y="13.026"/><use xlink:href="#8" y="17.368"/></svg><svg x="2916"><use xlink:href="#a"/><use xlink:href="#b" x="-.004" y="19.514"/><use xlink:href="#7"/><use xlink:href="#8" y="2.171"/><use xlink:href="#9" y="4.342"/><use xlink:href="#10" y="6.513"/><use xlink:href="#11" y="8.684"/><use xlink:href="#12" y="10.855"/><use xlink:href="#13" y="13.026"/><use xlink:href="#8" y="17.368"/></svg><svg x="2997"><use xlink:href="#a"/><use xlink:href="#b" x="18.996" y="19.514"/><use xlink:href="#7"/><use xlink:href="#8" y="2.171"/><use xlink:href="#9" y="4.342"/><use xlink:href="#10" y="6.513"/><use xlink:href="#11" y="8.684"/><use xlink:href="#12" y="10.855"/><use xlink:href="#13" y="13.026"/><use xlink:href="#8" y="17.368"/><use xlink:href="#1" y="19.539"/></svg><svg x="3078"><use xlink:href="#a"/><use xlink:href="#b" x="-.004" y="21.685"/><use xlink:href="#7"/><use xlink:href="#8" y="2.171"/><use xlink:href="#9" y="4.342"/><use xlink:href="#10" y="6.513"/><use xlink:href="#11" y="8.684"/><use xlink:href="#12" y="10.855"/><use xlink:href="#13" y="13.026"/><use xlink:href="#8" y="17.368"/><use xlink:href="#1" y="19.539"/></svg></svg></g></g></svg></svg>