<svg xmlns="http://www.w3.org/2000/svg" xmlns:xlink="http://www.w3.org/1999/xlink" width="850" height="754.72"><rect width="850" height="754.72" rx="5" ry="5" class="a"/><svg y="0%" x="0%"><circle cx="20" cy="20" r="6" fill="#ff5f58"/><circle cx="40" cy="20" r="6" fill="#ffbd2e"/><circle cx="60" cy="20" r="6" fill="#18c132"/></svg><svg height="694.72" viewBox="0 0 81 69.472" width="810" x="15" xmlns="http://www.w3.org/2000/svg" xmlns:xlink="http://www.w3.org/1999/xlink" y="50"><style>@keyframes n{0%{transform:translateX(0)}12.3%{transform:translateX(-81px)}13.2%{transform:translateX(-162px)}17.8%{transform:translateX(-243px)}23%{transform:translateX(-324px)}29.6%{transform:translateX(-405px)}33.3%{transform:translateX(-567px)}34.3%{transform:translateX(-648px)}41.4%{transform:translateX(-729px)}48.2%{transform:translateX(-810px)}50.4%{transform:translateX(-891px)}53.1%{transform:translateX(-972px)}55.7%{transform:translateX(-1053px)}58%{transform:translateX(-1134px)}58.6%{transform:translateX(-1215px)}59.8%{transform:translateX(-1296px)}60.2%{transform:translateX(-1377px)}61.9%{transform:translateX(-1458px)}62.5%{transform:translateX(-1539px)}65.7%{transform:translateX(-1620px)}69%{transform:translateX(-1863px)}69.9%{transform:translateX(-1944px)}to{transform:translateX(-2025px)}}.a{fill:#282d35}.f{white-space:pre}.f,.g,.i{fill:#b9c0cb}.i{font-weight:700}.i,.j,.k{white-space:pre}.j{fill:#71bef2;font-weight:700}.k{fill:#a8cc8c}</style><g font-family="Monaco,Consolas,Menlo,'Bitstream Vera Sans Mono','Powerline Symbols',monospace" font-size="1.67"><defs><symbol id="1"><text y="1.67" class="f">rbas@bayraktar</text><text x="15.03" y="1.67" class="f">~</text><text x="17.034" y="1.67" class="f">%</text></symbol><symbol id="2"><text y="1.67" class="f">rbas@bayraktar</text><text x="15.03" y="1.67" class="f">~</text><text x="17.034" y="1.67" class="f">%</text><text x="19.038" y="1.67" class="f">curl</text><text x="24.048" y="1.67" class="f">-s</text><text x="27.054" y="1.67" class="f">-X</text><text x="30.06" y="1.67" class="f">GET</text><text x="34.068" y="1.67" class="f">https://dummyjson.com/products/1</text></symbol><symbol id="3"><text y="1.67" class="f">{&quot;id&quot;:1,&quot;title&quot;:&quot;iPhone</text><text x="24.048" y="1.67" class="f">9&quot;,&quot;description&quot;:&quot;An</text><text x="45.09" y="1.67" class="f">apple</text><text x="51.102" y="1.67" class="f">mobile</text><text x="58.116" y="1.67" class="f">which</text><text x="64.128" y="1.67" class="f">is</text><text x="67.134" y="1.67" class="f">nothing</text><text x="75.15" y="1.67" class="f">like</text><text x="80.16" y="1.67" class="f">a</text></symbol><symbol id="4"><text y="1.67" class="f">pple&quot;,&quot;price&quot;:549,&quot;discountPercentage&quot;:12.96,&quot;rating&quot;:4.69,&quot;stock&quot;:94,&quot;brand&quot;:&quot;Ap</text></symbol><symbol id="5"><text y="1.67" class="f">ple&quot;,&quot;category&quot;:&quot;smartphones&quot;,&quot;thumbnail&quot;:&quot;https://i.dummyjson.com/data/products/</text></symbol><symbol id="6"><text y="1.67" class="f">1/thumbnail.jpg&quot;,&quot;images&quot;:[&quot;https://i.dummyjson.com/data/products/1/1.jpg&quot;,&quot;https</text></symbol><symbol id="7"><text y="1.67" class="f">://i.dummyjson.com/data/products/1/2.jpg&quot;,&quot;https://i.dummyjson.com/data/products/</text></symbol><symbol id="8"><text y="1.67" class="f">1/3.jpg&quot;,&quot;https://i.dummyjson.com/data/products/1/4.jpg&quot;,&quot;https://i.dummyjson.com</text></symbol><symbol id="9"><text y="1.67" class="f">/data/products/1/thumbnail.jpg&quot;]}</text><path class="g" d="M33.066 0h1v2.171h-1z"/><text x="33.066" y="1.67" style="white-space:pre" fill="#282d35" font-weight="700">%</text></symbol><symbol id="10"><text y="1.67" class="f">rbas@bayraktar</text><text x="15.03" y="1.67" class="f">~</text><text x="17.034" y="1.67" class="f">%</text><text x="19.038" y="1.67" class="f">curl</text><text x="24.048" y="1.67" class="f">-s</text><text x="27.054" y="1.67" class="f">-X</text><text x="30.06" y="1.67" class="f">GET</text><text x="34.068" y="1.67" class="f">https://dummyjson.com/products/1</text><text x="67.134" y="1.67" class="f">|</text></symbol><symbol id="11"><text y="1.67" class="f">rbas@bayraktar</text><text x="15.03" y="1.67" class="f">~</text><text x="17.034" y="1.67" class="f">%</text><text x="19.038" y="1.67" class="f">curl</text><text x="24.048" y="1.67" class="f">-s</text><text x="27.054" y="1.67" class="f">-X</text><text x="30.06" y="1.67" class="f">GET</text><text x="34.068" y="1.67" class="f">https://dummyjson.com/products/1</text><text x="67.134" y="1.67" class="f">|</text><text x="69.138" y="1.67" class="f">jsonify</text></symbol><symbol id="12"><text y="1.67" class="i">{</text></symbol><symbol id="13"><text x="2.004" y="1.67" class="j">&quot;brand&quot;</text><text x="9.018" y="1.67" class="f">:</text><text x="11.022" y="1.67" class="k">&quot;Apple&quot;</text><text x="18.036" y="1.67" class="f">,</text></symbol><symbol id="14"><text x="2.004" y="1.67" class="j">&quot;category&quot;</text><text x="12.024" y="1.67" class="f">:</text><text x="14.028" y="1.67" class="k">&quot;smartphones&quot;</text><text x="27.054" y="1.67" class="f">,</text></symbol><symbol id="15"><text x="2.004" y="1.67" class="j">&quot;description&quot;</text><text x="15.03" y="1.67" class="f">:</text><text x="17.034" y="1.67" class="k">&quot;An</text><text x="21.042" y="1.67" class="k">apple</text><text x="27.054" y="1.67" class="k">mobile</text><text x="34.068" y="1.67" class="k">which</text><text x="40.08" y="1.67" class="k">is</text><text x="43.086" y="1.67" class="k">nothing</text><text x="51.102" y="1.67" class="k">like</text><text x="56.112" y="1.67" class="k">apple&quot;</text><text x="62.124" y="1.67" class="f">,</text></symbol><symbol id="16"><text x="2.004" y="1.67" class="j">&quot;discountPercentage&quot;</text><text x="22.044" y="1.67" class="f">:</text><text x="24.048" y="1.67" class="f">12.96,</text></symbol><symbol id="17"><text x="2.004" y="1.67" class="j">&quot;id&quot;</text><text x="6.012" y="1.67" class="f">:</text><text x="8.016" y="1.67" class="f">1,</text></symbol><symbol id="18"><text x="2.004" y="1.67" class="j">&quot;images&quot;</text><text x="10.02" y="1.67" class="f">:</text><text x="12.024" y="1.67" class="i">[</text></symbol><symbol id="19"><text x="4.008" y="1.67" class="k">&quot;https://i.dummyjson.com/data/products/1/1.jpg&quot;</text><text x="51.102" y="1.67" class="f">,</text></symbol><symbol id="20"><text x="4.008" y="1.67" class="k">&quot;https://i.dummyjson.com/data/products/1/2.jpg&quot;</text><text x="51.102" y="1.67" class="f">,</text></symbol><symbol id="21"><text x="4.008" y="1.67" class="k">&quot;https://i.dummyjson.com/data/products/1/3.jpg&quot;</text><text x="51.102" y="1.67" class="f">,</text></symbol><symbol id="22"><text x="4.008" y="1.67" class="k">&quot;https://i.dummyjson.com/data/products/1/4.jpg&quot;</text><text x="51.102" y="1.67" class="f">,</text></symbol><symbol id="23"><text x="4.008" y="1.67" class="k">&quot;https://i.dummyjson.com/data/products/1/thumbnail.jpg&quot;</text></symbol><symbol id="24"><text x="2.004" y="1.67" class="i">]</text><text x="3.006" y="1.67" class="f">,</text></symbol><symbol id="25"><text x="2.004" y="1.67" class="j">&quot;price&quot;</text><text x="9.018" y="1.67" class="f">:</text><text x="11.022" y="1.67" class="f">549,</text></symbol><symbol id="26"><text x="2.004" y="1.67" class="j">&quot;rating&quot;</text><text x="10.02" y="1.67" class="f">:</text><text x="12.024" y="1.67" class="f">4.69,</text></symbol><symbol id="27"><text x="2.004" y="1.67" class="j">&quot;stock&quot;</text><text x="9.018" y="1.67" class="f">:</text><text x="11.022" y="1.67" class="f">94,</text></symbol><symbol id="28"><text x="2.004" y="1.67" class="j">&quot;thumbnail&quot;</text><text x="13.026" y="1.67" class="f">:</text><text x="15.03" y="1.67" class="k">&quot;https://i.dummyjson.com/data/products/1/thumbnail.jpg&quot;</text><text x="70.14" y="1.67" class="f">,</text></symbol><symbol id="29"><text x="2.004" y="1.67" class="j">&quot;title&quot;</text><text x="9.018" y="1.67" class="f">:</text><text x="11.022" y="1.67" class="k">&quot;iPhone</text><text x="19.038" y="1.67" class="k">9&quot;</text></symbol><symbol id="30"><text y="1.67" class="i">}</text></symbol><symbol id="a"><path fill="transparent" d="M0 0h81v32H0z"/></symbol><symbol id="b"><path fill="#6f7683" d="M0 0h1.102v2.171H0z"/></symbol></defs><path class="a" d="M0 0h81v69.472H0z"/><g style="animation-duration:14.932832s;animation-iteration-count:infinite;animation-name:n;animation-timing-function:steps(1,end)"><svg width="2106"><svg><use xlink:href="#a"/><use xlink:href="#b" x="-.004"/></svg><svg x="81"><use xlink:href="#a"/><use xlink:href="#b" x="-.004"/></svg><svg x="162"><use xlink:href="#a"/><use xlink:href="#b" x="18.996"/><use xlink:href="#1"/></svg><svg x="243"><use xlink:href="#a"/><use xlink:href="#b" x="65.996"/><text y="1.67" class="f">rbas@bayraktar</text><text x="15.03" y="1.67" class="f">~</text><text x="17.034" y="1.67" class="f">%</text><path class="g" d="M19.038 0h47v2.171h-47z"/><text x="19.038" y="1.67" style="white-space:pre" fill="#282d35">curl -s -X GET https://dummyjson.com/products/1</text></svg><svg x="324"><use xlink:href="#a"/><use xlink:href="#b" x="65.996"/><use xlink:href="#2"/></svg><svg x="405"><use xlink:href="#a"/><use xlink:href="#b" x="-.004" y="2.146"/><use xlink:href="#2"/></svg><svg x="486"><use xlink:href="#a"/><use xlink:href="#b" x="32.996" y="15.172"/><use xlink:href="#2"/><use xlink:href="#3" y="2.171"/><use xlink:href="#4" y="4.342"/><use xlink:href="#5" y="6.513"/><use xlink:href="#6" y="8.684"/><use xlink:href="#7" y="10.855"/><use xlink:href="#8" y="13.026"/><text y="16.867" class="f">/data/products/1/thumbnail.jpg&quot;]}</text></svg><svg x="567"><use xlink:href="#a"/><use xlink:href="#b" x="-.004" y="17.343"/><use xlink:href="#2"/><use xlink:href="#3" y="2.171"/><use xlink:href="#4" y="4.342"/><use xlink:href="#5" y="6.513"/><use xlink:href="#6" y="8.684"/><use xlink:href="#7" y="10.855"/><use xlink:href="#8" y="13.026"/><use xlink:href="#9" y="15.197"/></svg><svg x="648"><use xlink:href="#a"/><use xlink:href="#b" x="18.996" y="17.343"/><use xlink:href="#2"/><use xlink:href="#3" y="2.171"/><use xlink:href="#4" y="4.342"/><use xlink:href="#5" y="6.513"/><use xlink:href="#6" y="8.684"/><use xlink:href="#7" y="10.855"/><use xlink:href="#8" y="13.026"/><use xlink:href="#9" y="15.197"/><use xlink:href="#1" y="17.368"/></svg><svg x="729"><use xlink:href="#a"/><use xlink:href="#b" x="65.996" y="17.343"/><use xlink:href="#2"/><use xlink:href="#3" y="2.171"/><use xlink:href="#4" y="4.342"/><use xlink:href="#5" y="6.513"/><use xlink:href="#6" y="8.684"/><use xlink:href="#7" y="10.855"/><use xlink:href="#8" y="13.026"/><use xlink:href="#9" y="15.197"/><use xlink:href="#2" y="17.368"/></svg><svg x="810"><use xlink:href="#a"/><use xlink:href="#b" x="66.996" y="17.343"/><use xlink:href="#2"/><use xlink:href="#3" y="2.171"/><use xlink:href="#4" y="4.342"/><use xlink:href="#5" y="6.513"/><use xlink:href="#6" y="8.684"/><use xlink:href="#7" y="10.855"/><use xlink:href="#8" y="13.026"/><use xlink:href="#9" y="15.197"/><use xlink:href="#2" y="17.368"/></svg><svg x="891"><use xlink:href="#a"/><use xlink:href="#b" x="67.996" y="17.343"/><use xlink:href="#2"/><use xlink:href="#3" y="2.171"/><use xlink:href="#4" y="4.342"/><use xlink:href="#5" y="6.513"/><use xlink:href="#6" y="8.684"/><use xlink:href="#7" y="10.855"/><use xlink:href="#8" y="13.026"/><use xlink:href="#9" y="15.197"/><use xlink:href="#10" y="17.368"/></svg><svg x="972"><use xlink:href="#a"/><use xlink:href="#b" x="68.996" y="17.343"/><use xlink:href="#2"/><use xlink:href="#3" y="2.171"/><use xlink:href="#4" y="4.342"/><use xlink:href="#5" y="6.513"/><use xlink:href="#6" y="8.684"/><use xlink:href="#7" y="10.855"/><use xlink:href="#8" y="13.026"/><use xlink:href="#9" y="15.197"/><use xlink:href="#10" y="17.368"/></svg><svg x="1053"><use xlink:href="#a"/><use xlink:href="#b" x="69.996" y="17.343"/><use xlink:href="#2"/><use xlink:href="#3" y="2.171"/><use xlink:href="#4" y="4.342"/><use xlink:href="#5" y="6.513"/><use xlink:href="#6" y="8.684"/><use xlink:href="#7" y="10.855"/><use xlink:href="#8" y="13.026"/><use xlink:href="#9" y="15.197"/><text y="19.038" class="f">rbas@bayraktar</text><text x="15.03" y="19.038" class="f">~</text><text x="17.034" y="19.038" class="f">%</text><text x="19.038" y="19.038" class="f">curl</text><text x="24.048" y="19.038" class="f">-s</text><text x="27.054" y="19.038" class="f">-X</text><text x="30.06" y="19.038" class="f">GET</text><text x="34.068" y="19.038" class="f">https://dummyjson.com/products/1</text><text x="67.134" y="19.038" class="f">|</text><text x="69.138" y="19.038" class="f">j</text></svg><svg x="1134"><use xlink:href="#a"/><use xlink:href="#b" x="70.996" y="17.343"/><use xlink:href="#2"/><use xlink:href="#3" y="2.171"/><use xlink:href="#4" y="4.342"/><use xlink:href="#5" y="6.513"/><use xlink:href="#6" y="8.684"/><use xlink:href="#7" y="10.855"/><use xlink:href="#8" y="13.026"/><use xlink:href="#9" y="15.197"/><text y="19.038" class="f">rbas@bayraktar</text><text x="15.03" y="19.038" class="f">~</text><text x="17.034" y="19.038" class="f">%</text><text x="19.038" y="19.038" class="f">curl</text><text x="24.048" y="19.038" class="f">-s</text><text x="27.054" y="19.038" class="f">-X</text><text x="30.06" y="19.038" class="f">GET</text><text x="34.068" y="19.038" class="f">https://dummyjson.com/products/1</text><text x="67.134" y="19.038" class="f">|</text><text x="69.138" y="19.038" class="f">js</text></svg><svg x="1215"><use xlink:href="#a"/><use xlink:href="#b" x="71.996" y="17.343"/><use xlink:href="#2"/><use xlink:href="#3" y="2.171"/><use xlink:href="#4" y="4.342"/><use xlink:href="#5" y="6.513"/><use xlink:href="#6" y="8.684"/><use xlink:href="#7" y="10.855"/><use xlink:href="#8" y="13.026"/><use xlink:href="#9" y="15.197"/><text y="19.038" class="f">rbas@bayraktar</text><text x="15.03" y="19.038" class="f">~</text><text x="17.034" y="19.038" class="f">%</text><text x="19.038" y="19.038" class="f">curl</text><text x="24.048" y="19.038" class="f">-s</text><text x="27.054" y="19.038" class="f">-X</text><text x="30.06" y="19.038" class="f">GET</text><text x="34.068" y="19.038" class="f">https://dummyjson.com/products/1</text><text x="67.134" y="19.038" class="f">|</text><text x="69.138" y="19.038" class="f">jso</text></svg><svg x="1296"><use xlink:href="#a"/><use xlink:href="#b" x="72.996" y="17.343"/><use xlink:href="#2"/><use xlink:href="#3" y="2.171"/><use xlink:href="#4" y="4.342"/><use xlink:href="#5" y="6.513"/><use xlink:href="#6" y="8.684"/><use xlink:href="#7" y="10.855"/><use xlink:href="#8" y="13.026"/><use xlink:href="#9" y="15.197"/><text y="19.038" class="f">rbas@bayraktar</text><text x="15.03" y="19.038" class="f">~</text><text x="17.034" y="19.038" class="f">%</text><text x="19.038" y="19.038" class="f">curl</text><text x="24.048" y="19.038" class="f">-s</text><text x="27.054" y="19.038" class="f">-X</text><text x="30.06" y="19.038" class="f">GET</text><text x="34.068" y="19.038" class="f">https://dummyjson.com/products/1</text><text x="67.134" y="19.038" class="f">|</text><text x="69.138" y="19.038" class="f">json</text></svg><svg x="1377"><use xlink:href="#a"/><use xlink:href="#b" x="73.996" y="17.343"/><use xlink:href="#2"/><use xlink:href="#3" y="2.171"/><use xlink:href="#4" y="4.342"/><use xlink:href="#5" y="6.513"/><use xlink:href="#6" y="8.684"/><use xlink:href="#7" y="10.855"/><use xlink:href="#8" y="13.026"/><use xlink:href="#9" y="15.197"/><text y="19.038" class="f">rbas@bayraktar</text><text x="15.03" y="19.038" class="f">~</text><text x="17.034" y="19.038" class="f">%</text><text x="19.038" y="19.038" class="f">curl</text><text x="24.048" y="19.038" class="f">-s</text><text x="27.054" y="19.038" class="f">-X</text><text x="30.06" y="19.038" class="f">GET</text><text x="34.068" y="19.038" class="f">https://dummyjson.com/products/1</text><text x="67.134" y="19.038" class="f">|</text><text x="69.138" y="19.038" class="f">jsoni</text></svg><svg x="1458"><use xlink:href="#a"/><use xlink:href="#b" x="74.996" y="17.343"/><use xlink:href="#2"/><use xlink:href="#3" y="2.171"/><use xlink:href="#4" y="4.342"/><use xlink:href="#5" y="6.513"/><use xlink:href="#6" y="8.684"/><use xlink:href="#7" y="10.855"/><use xlink:href="#8" y="13.026"/><use xlink:href="#9" y="15.197"/><text y="19.038" class="f">rbas@bayraktar</text><text x="15.03" y="19.038" class="f">~</text><text x="17.034" y="19.038" class="f">%</text><text x="19.038" y="19.038" class="f">curl</text><text x="24.048" y="19.038" class="f">-s</text><text x="27.054" y="19.038" class="f">-X</text><text x="30.06" y="19.038" class="f">GET</text><text x="34.068" y="19.038" class="f">https://dummyjson.com/products/1</text><text x="67.134" y="19.038" class="f">|</text><text x="69.138" y="19.038" class="f">jsonif</text></svg><svg x="1539"><use xlink:href="#a"/><use xlink:href="#b" x="75.996" y="17.343"/><use xlink:href="#2"/><use xlink:href="#3" y="2.171"/><use xlink:href="#4" y="4.342"/><use xlink:href="#5" y="6.513"/><use xlink:href="#6" y="8.684"/><use xlink:href="#7" y="10.855"/><use xlink:href="#8" y="13.026"/><use xlink:href="#9" y="15.197"/><use xlink:href="#11" y="17.368"/></svg><svg x="1620"><use xlink:href="#a"/><use xlink:href="#b" x="-.004" y="19.514"/><use xlink:href="#2"/><use xlink:href="#3" y="2.171"/><use xlink:href="#4" y="4.342"/><use xlink:href="#5" y="6.513"/><use xlink:href="#6" y="8.684"/><use xlink:href="#7" y="10.855"/><use xlink:href="#8" y="13.026"/><use xlink:href="#9" y="15.197"/><use xlink:href="#11" y="17.368"/></svg><svg x="1701"><use xlink:href="#a"/><use xlink:href="#b" x="4.996" y="52.079"/><use xlink:href="#2"/><use xlink:href="#3" y="2.171"/><use xlink:href="#4" y="4.342"/><use xlink:href="#5" y="6.513"/><use xlink:href="#6" y="8.684"/><use xlink:href="#7" y="10.855"/><use xlink:href="#8" y="13.026"/><use xlink:href="#9" y="15.197"/><use xlink:href="#11" y="17.368"/><use xlink:href="#12" y="19.539"/><use xlink:href="#13" y="21.71"/><use xlink:href="#14" y="23.881"/><use xlink:href="#15" y="26.052"/><use xlink:href="#16" y="28.223"/><use xlink:href="#17" y="30.394"/><use xlink:href="#18" y="32.565"/><use xlink:href="#19" y="34.736"/><use xlink:href="#20" y="36.907"/><use xlink:href="#21" y="39.078"/><use xlink:href="#22" y="41.249"/><use xlink:href="#23" y="43.42"/><use xlink:href="#24" y="45.591"/><use xlink:href="#25" y="47.762"/><use xlink:href="#26" y="49.933"/><text x="2.004" y="53.774" class="j">&quot;st</text></svg><svg x="1782"><use xlink:href="#a"/><use xlink:href="#b" x="-.004" y="60.763"/><use xlink:href="#2"/><use xlink:href="#3" y="2.171"/><use xlink:href="#4" y="4.342"/><use xlink:href="#5" y="6.513"/><use xlink:href="#6" y="8.684"/><use xlink:href="#7" y="10.855"/><use xlink:href="#8" y="13.026"/><use xlink:href="#9" y="15.197"/><use xlink:href="#11" y="17.368"/><use xlink:href="#12" y="19.539"/><use xlink:href="#13" y="21.71"/><use xlink:href="#14" y="23.881"/><use xlink:href="#15" y="26.052"/><use xlink:href="#16" y="28.223"/><use xlink:href="#17" y="30.394"/><use xlink:href="#18" y="32.565"/><use xlink:href="#19" y="34.736"/><use xlink:href="#20" y="36.907"/><use xlink:href="#21" y="39.078"/><use xlink:href="#22" y="41.249"/><use xlink:href="#23" y="43.42"/><use xlink:href="#24" y="45.591"/><use xlink:href="#25" y="47.762"/><use xlink:href="#26" y="49.933"/><use xlink:href="#27" y="52.104"/><use xlink:href="#28" y="54.275"/><use xlink:href="#29" y="56.446"/><use xlink:href="#30" y="58.617"/></svg><svg x="1863"><use xlink:href="#a"/><use xlink:href="#b" x="-.004" y="60.763"/><use xlink:href="#2"/><use xlink:href="#3" y="2.171"/><use xlink:href="#4" y="4.342"/><use xlink:href="#5" y="6.513"/><use xlink:href="#6" y="8.684"/><use xlink:href="#7" y="10.855"/><use xlink:href="#8" y="13.026"/><use xlink:href="#9" y="15.197"/><use xlink:href="#11" y="17.368"/><use xlink:href="#12" y="19.539"/><use xlink:href="#13" y="21.71"/><use xlink:href="#14" y="23.881"/><use xlink:href="#15" y="26.052"/><use xlink:href="#16" y="28.223"/><use xlink:href="#17" y="30.394"/><use xlink:href="#18" y="32.565"/><use xlink:href="#19" y="34.736"/><use xlink:href="#20" y="36.907"/><use xlink:href="#21" y="39.078"/><use xlink:href="#22" y="41.249"/><use xlink:href="#23" y="43.42"/><use xlink:href="#24" y="45.591"/><use xlink:href="#25" y="47.762"/><use xlink:href="#26" y="49.933"/><use xlink:href="#27" y="52.104"/><use xlink:href="#28" y="54.275"/><use xlink:href="#29" y="56.446"/><use xlink:href="#30" y="58.617"/></svg><svg x="1944"><use xlink:href="#a"/><use xlink:href="#b" x="18.996" y="60.763"/><use xlink:href="#2"/><use xlink:href="#3" y="2.171"/><use xlink:href="#4" y="4.342"/><use xlink:href="#5" y="6.513"/><use xlink:href="#6" y="8.684"/><use xlink:href="#7" y="10.855"/><use xlink:href="#8" y="13.026"/><use xlink:href="#9" y="15.197"/><use xlink:href="#11" y="17.368"/><use xlink:href="#12" y="19.539"/><use xlink:href="#13" y="21.71"/><use xlink:href="#14" y="23.881"/><use xlink:href="#15" y="26.052"/><use xlink:href="#16" y="28.223"/><use xlink:href="#17" y="30.394"/><use xlink:href="#18" y="32.565"/><use xlink:href="#19" y="34.736"/><use xlink:href="#20" y="36.907"/><use xlink:href="#21" y="39.078"/><use xlink:href="#22" y="41.249"/><use xlink:href="#23" y="43.42"/><use xlink:href="#24" y="45.591"/><use xlink:href="#25" y="47.762"/><use xlink:href="#26" y="49.933"/><use xlink:href="#27" y="52.104"/><use xlink:href="#28" y="54.275"/><use xlink:href="#29" y="56.446"/><use xlink:href="#30" y="58.617"/><use xlink:href="#1" y="60.788"/></svg><svg x="2025"><use xlink:href="#a"/><use xlink:href="#b" x="-.004" y="62.934"/><use xlink:href="#2"/><use xlink:href="#3" y="2.171"/><use xlink:href="#4" y="4.342"/><use xlink:href="#5" y="6.513"/><use xlink:href="#6" y="8.684"/><use xlink:href="#7" y="10.855"/><use xlink:href="#8" y="13.026"/><use xlink:href="#9" y="15.197"/><use xlink:href="#11" y="17.368"/><use xlink:href="#12" y="19.539"/><use xlink:href="#13" y="21.71"/><use xlink:href="#14" y="23.881"/><use xlink:href="#15" y="26.052"/><use xlink:href="#16" y="28.223"/><use xlink:href="#17" y="30.394"/><use xlink:href="#18" y="32.565"/><use xlink:href="#19" y="34.736"/><use xlink:href="#20" y="36.907"/><use xlink:href="#21" y="39.078"/><use xlink:href="#22" y="41.249"/><use xlink:href="#23" y="43.42"/><use xlink:href="#24" y="45.591"/><use xlink:href="#25" y="47.762"/><use xlink:href="#26" y="49.933"/><use xlink:href="#27" y="52.104"/><use xlink:href="#28" y="54.275"/><use xlink:href="#29" y="56.446"/><use xlink:href="#30" y="58.617"/><use xlink:href="#1" y="60.788"/></svg></svg></g></g></svg></svg>